# xmcd
#
# Track frame offsets: 
#        150
#        9502
#        18600
#        27312
#        35467
#        45727
#        56920
#        66157
#        75452
#        84910
#        95477
#        109057
#        119040
#        131885
#        143332
#        156590
#        167810
#        179137
#        189727
#        201380
#        210747
#        221325
#        232587
#        243500
#        255317
#        267805
#        276107
#        288205
#        297142
#        310995
#        318720
#
# Disc length: 4439 seconds
#
# Revision: 0
# Processed by: cddbd v1.5.1PL0 Copyright (c) Steve Scherf et al.
# Submitted via: ExactAudioCopy v0.95a4
#
DISCID=cd11551f
DTITLE=Various Artist - The 'D' Singles Volume 5 - Disc 2
DYEAR=1900
DGENRE=Country
TTITLE0=Durwood Haddock - How Lonesome Can I Get
TTITLE1=Durwood Haddock - Start All Over
TTITLE2=Johnny Dollar - Lonesome Trains
TTITLE3=Johnny Dollar - West Texas
TTITLE4=Jack Newman - The Sun Turned Blue
TTITLE5=Jack Newman - Make Me A Member
TTITLE6=Merl Lindsay - Tied To The Bottle
TTITLE7=Merl Lindsay - She's The One For Me
TTITLE8=Jim Eanes - Crazy Dreams
TTITLE9=Jim Eanes - Your Troubles Are Mine
TTITLE10=Jim Eanes - Across The Table
TTITLE11=Lynn Stafford - Tonight I'll Celebrate
TTITLE12=Lynn Stafford - My Past Is A Chain
TTITLE13=Billy Parker - Unexpected Heartaches
TTITLE14=Billy Parker - Alomst Gone
TTITLE15=George Cooper - I Finally Broke The Spell
TTITLE16=George Cooper - The Ways Of Life
TTITLE17=Jerry Jericho - Just For The Thrill
TTITLE18=Jerry Jericho - Tears Fall Again
TTITLE19=Curtis Haskins - Those Places
TTITLE20=Curtis Haskins - You're Making Believe
TTITLE21=Bobby Fields - Your Jealous Heart
TTITLE22=Bobby Fields - I've Lost Everything
TTITLE23=Billy Western - Worn Out Words
TTITLE24=Billy Western - His And Hers
TTITLE25=Al Gressett - You Gotta Hurry
TTITLE26=Al Gressett - Do You Realize
TTITLE27=Margie Word - The Farmers Wife
TTITLE28=Margie Word - Honky Tonk Love
TTITLE29=Doyle Grisham - The Shadow
TTITLE30=Doyle Grisham - I Can't Change Overnight
EXTD=
EXTT0=
EXTT1=
EXTT2=
EXTT3=
EXTT4=
EXTT5=
EXTT6=
EXTT7=
EXTT8=
EXTT9=
EXTT10=
EXTT11=
EXTT12=
EXTT13=
EXTT14=
EXTT15=
EXTT16=
EXTT17=
EXTT18=
EXTT19=
EXTT20=
EXTT21=
EXTT22=
EXTT23=
EXTT24=
EXTT25=
EXTT26=
EXTT27=
EXTT28=
EXTT29=
EXTT30=
PLAYORDER=
